<?xml version="1.0" encoding="utf-8"?>
<!-- Generator: Adobe Illustrator 26.0.3, SVG Export Plug-In . SVG Version: 6.00 Build 0)  -->
<svg version="1.1" id="Ebene_1" xmlns="http://www.w3.org/2000/svg" xmlns:xlink="http://www.w3.org/1999/xlink" x="0px" y="0px"
	 viewBox="0 0 86.2 20.9" style="enable-background:new 0 0 86.2 20.9;" xml:space="preserve">
<style type="text/css">
	.st0{fill:#1D1D1B;}
</style>
<path class="st0" d="M21.6,10.2c-0.2-0.2-0.3-0.5-0.3-0.8c0-0.3,0.1-0.5,0.6-0.7c1.5-0.8,2.5-2.4,2.4-4.1c0-3-2.1-4.4-5.4-4.4h-3.7
	c-1.5,0-2.2,0.7-2.2,1.8v13.7c0,0.8,0.6,0.9,1.2,0.9c0.2,0,0.5,0,0.7-0.1c0.2,0.1,0.5,0.1,0.7,0.1c0.6,0,1.2-0.1,1.2-0.9v-5
	c0-0.3,0.2-0.6,0.5-0.7c0.5,0.2,1,0.6,1.2,1.1l3,4.8c0.2,0.5,0.7,0.8,1.2,0.7c0.2,0,0.5,0,0.7-0.1c0.2,0.1,0.4,0.1,0.7,0.1
	c0.9,0,1.2-0.6,1.2-1c0-0.2-0.1-0.3-0.1-0.5L21.6,10.2z M17.2,8.4c-0.6-0.1-0.7-0.3-0.7-1.1V3.1c0-0.8,0.2-1,1.1-1.1
	c1.7,0.1,2.7,0.9,2.7,3C20.4,7.4,19.2,8.3,17.2,8.4L17.2,8.4z"/>
<path class="st0" d="M44.8,0.1c-0.2,0-0.5,0-0.7,0.1c-0.2-0.1-0.4-0.1-0.6-0.1c-0.6,0-1.2,0.1-1.3,0.9C41.8,3.8,40.9,10,40.4,13
	c-0.5-2.9-1.5-8.7-2-11.4c-0.1-0.6-0.6-1.2-1.9-1.2c-0.2,0-0.5,0-0.7,0.1c-0.2,0-0.4-0.1-0.7-0.1c-1.3,0-1.8,0.5-1.9,1.2
	c-0.4,2.6-1.5,8.3-2.1,11.3c-0.5-3-1.4-9.1-1.6-11.8c-0.1-0.8-0.7-0.9-1.3-0.9c-0.2,0-0.4,0-0.6,0.1c-0.2-0.1-0.5-0.1-0.8-0.1
	c-0.8,0-1.1,0.5-1.1,0.9c0,1.3,1.7,12.2,2.2,14.6c0.2,1,1.5,1.1,2.2,1.1c0.2,0,0.5,0,0.7,0c0.2,0,0.4,0,0.7,0c0.7,0,2.2-0.1,2.4-1.1
	c0.3-1.2,1.2-5.9,1.9-9.6c0.6,3.7,1.4,8.4,1.7,9.6c0.2,1,1.7,1.1,2.4,1.1c0.2,0,0.4,0,0.7,0c0.2,0,0.5,0,0.7,0
	c0.7,0,1.9-0.1,2.2-1.1c0.5-2.5,2.4-13.4,2.4-14.6C45.9,0.6,45.6,0.1,44.8,0.1z"/>
<path class="st0" d="M55.1,0.2h-5c-1.5,0-2.2,0.7-2.2,1.8v12.7c0,1.2,0.7,1.8,2.2,1.8h5c5.2,0,5.9-4.5,5.9-8.4
	C61,4,60.3,0.2,55.1,0.2z M53.3,14.8h-0.1c-1.2,0-1.5-0.1-1.5-1.1V3.1C51.7,2,51.9,2,53.1,2h0.1c2.8,0,4.1,1.2,4.1,6.1
	C57.3,13.1,56,14.8,53.3,14.8L53.3,14.8z"/>
<path class="st0" d="M70.8,3.5c-0.1,0-0.2,0-0.3,0c-0.3,0-0.7,0-1.1,0c-4.2,0-6.1,1.5-6.1,6.5c0,4.9,1.3,5.9,6.3,5.9
	c1.5,0,1.6,0.1,1.6,0.6v0.8c0,1.3-1.3,1.8-3.3,1.9c-0.8,0-1.5-0.2-2.2-0.2c-0.1,0-0.2,0-0.3,0.1c-0.4,0-0.7-0.1-1.1-0.1
	c-0.4,0-0.6,0.3-0.6,0.8c0,1,1.5,1.3,3.5,1.3c0.2,0,0.5,0,0.7,0c0.2,0,0.4,0,0.6,0c2.7,0,6.3-0.3,6.3-4.3V4.8
	C74.9,3.5,73.6,3.5,70.8,3.5z M71.2,12.7c0,1.2-0.1,1.4-1.1,1.5c-2.7-0.1-3-0.8-3-4.2c0-3.7,0.6-4.5,2.4-4.7
	c1.5,0.1,1.7,0.3,1.7,1.5V12.7z"/>
<path class="st0" d="M83.4,9.2C81.8,8.1,81,7.4,81,6.6c0-0.8,0.4-1.2,1.5-1.3c0.4,0,0.9,0.1,1.3,0.1c0.2,0,0.4,0,0.5-0.1
	c0.3,0,0.6,0,0.8,0.1C85.6,5.4,86,5.1,86,4.7c0-0.3-0.1-0.7-0.4-0.8c-0.9-0.3-1.8-0.4-2.7-0.4c-0.2,0-0.4,0-0.5,0
	c-0.2,0-0.5,0-0.8,0c-2.3,0-4.1,0.7-4.1,3.2c0,1.3,0.7,2.3,2.7,3.7c2,1.4,2.4,2.2,2.4,3c0,1.1-0.8,1.5-1.8,1.6
	c-0.5,0-0.9-0.1-1.4-0.1c-0.2,0-0.4,0-0.5,0.1c-0.3,0-0.5-0.1-0.8-0.1c-0.4-0.1-0.8,0.2-0.9,0.6c0,0.1,0,0.2,0,0.2
	c0,0.4,0.2,0.7,0.6,0.8c0.8,0.2,1.6,0.3,2.4,0.3c0.2,0,0.4,0,0.6,0c0.2,0,0.5,0,0.7,0c2.6,0,4.7-0.8,4.7-3.5
	C86.2,11.7,85.5,10.6,83.4,9.2z"/>
<path class="st0" d="M9.4,2.4c0.3,0,0.8,0,0.8-0.1c0,0,0.1,0,0.1,0c0,0,0.1,0,0.1,0c0.4-0.1,0.6-0.5,0.6-0.9c0-0.3-0.1-0.6-0.4-0.8
	c-1-0.4-2-0.5-3-0.5H6.2c-4.5,0-5.9,3.3-5.9,8.5c0,5.3,1.5,8.3,5.9,8.3c0.3,0,0.5,0,0.8,0c0.2,0,0.4,0,0.6,0c1,0.1,2.1-0.1,3.1-0.5
	c0.3-0.1,0.5-0.5,0.4-0.8c0-0.5-0.4-0.9-0.9-0.9c-0.2,0-0.5-0.1-0.7-0.1c-0.2,0-0.5,0-0.8,0.1c-0.5,0.1-1,0.1-1.6,0.2
	c-2.6-0.3-3.1-2.2-3.1-6.2c0-4.4,0.5-6.7,3.2-6.6c0.7,0,1,0.1,1.6,0.2C9,2.3,9.1,2.3,9.4,2.4z"/>
</svg>
