<?xml version="1.0" encoding="utf-8"?>
<!-- Generator: Adobe Illustrator 26.3.1, SVG Export Plug-In . SVG Version: 6.00 Build 0)  -->
<svg version="1.0" id="Layer_1" xmlns="http://www.w3.org/2000/svg" xmlns:xlink="http://www.w3.org/1999/xlink" x="0px" y="0px"
	 viewBox="0 0 119.1 119.1" enable-background="new 0 0 119.1 119.1" xml:space="preserve">
<path fill="#FF0000" d="M60.8,101.2l41.1-82.3c0.3-0.7,0.1-1.5-0.6-1.8c0,0,0,0,0,0c-0.4-0.2-0.8-0.2-1.2,0l0,0L59.5,38.5L19,17.2
	l0,0c-0.4-0.2-0.8-0.2-1.2,0c-0.7,0.3-0.9,1.1-0.6,1.8c0,0,0,0,0,0l41.1,82.3c0.3,0.7,1.1,1,1.9,0.7
	C60.4,101.8,60.7,101.5,60.8,101.2L60.8,101.2z"/>
</svg>
